# MagicaVoxel @ Ephtracy

# group
o 

# material
mtllib rabbit.mtl
usemtl palette

# normals
vn -1 0 0
vn 1 0 0
vn 0 0 1
vn 0 0 -1
vn 0 -1 0
vn 0 1 0

# texcoords
vt 0.146484 0.5
vt 0.314453 0.5
vt 0.732422 0.5
vt 0.736328 0.5
vt 0.904297 0.5
vt 0.912109 0.5
vt 0.916016 0.5
vt 0.990234 0.5

# verts
v -0.7 0.4 0.2
v -0.7 0.4 5.96046e-008
v -0.7 0.6 0.2
v -0.7 0.6 5.96046e-008
v -0.7 1 0.6
v -0.7 1 0.2
v -0.7 1 5.96046e-008
v -0.7 1 -0.6
v -0.7 2.2 0.6
v -0.7 2.2 0.2
v -0.7 2.2 -0.2
v -0.7 2.2 -0.6
v -0.7 3 0.2
v -0.7 3 -0.2
v -0.5 0.2 0.4
v -0.5 0.2 -0.4
v -0.5 0.4 0.2
v -0.5 0.4 5.96046e-008
v -0.5 0.6 0.2
v -0.5 0.6 5.96046e-008
v -0.5 1 0.4
v -0.5 1 0.2
v -0.5 1 5.96046e-008
v -0.5 1 -0.4
v -0.3 0 0.2
v -0.3 0 -0.2
v -0.3 0.2 0.2
v -0.3 0.2 -0.2
v -0.1 0.3 -0.4
v -0.1 0.3 -0.6
v -0.1 0.5 -0.4
v -0.1 0.5 -0.6
v 0.1 0 0.2
v 0.1 0 -0.2
v 0.1 0.2 0.2
v 0.1 0.2 -0.2
v 0.1 2.2 0.2
v 0.1 2.2 -0.2
v 0.1 3 0.2
v 0.1 3 -0.2
v 0.5 1.2 0.6
v 0.5 1.2 0.4
v 0.5 1.4 0.4
v 0.5 1.8 0.4
v 0.5 2 0.6
v 0.5 2 0.4
v -0.5 1.2 0.6
v -0.5 1.2 0.4
v -0.5 1.4 0.4
v -0.5 1.6 0.4
v -0.5 1.8 0.4
v -0.5 2 0.6
v -0.5 2 0.4
v -0.1 0 0.2
v -0.1 0 -0.2
v -0.1 0.2 0.2
v -0.1 0.2 -0.2
v -0.1 2.2 0.2
v -0.1 2.2 -0.2
v -0.1 3 0.2
v -0.1 3 -0.2
v 0.1 0.3 -0.4
v 0.1 0.3 -0.6
v 0.1 0.5 -0.4
v 0.1 0.5 -0.6
v 0.3 0 0.2
v 0.3 0 -0.2
v 0.3 0.2 0.2
v 0.3 0.2 -0.2
v 0.5 0.2 0.4
v 0.5 0.2 -0.4
v 0.5 0.4 0.2
v 0.5 0.4 5.96046e-008
v 0.5 0.6 0.2
v 0.5 0.6 5.96046e-008
v 0.5 1 0.4
v 0.5 1 0.2
v 0.5 1 5.96046e-008
v 0.5 1 -0.4
v 0.7 0.4 0.2
v 0.7 0.4 5.96046e-008
v 0.7 0.6 0.2
v 0.7 0.6 5.96046e-008
v 0.7 1 0.6
v 0.7 1 0.2
v 0.7 1 5.96046e-008
v 0.7 1 -0.6
v 0.7 2.2 0.6
v 0.7 2.2 0.2
v 0.7 2.2 -0.2
v 0.7 2.2 -0.6
v 0.7 3 0.2
v 0.7 3 -0.2
v -0.7 1 0.6
v -0.7 2.2 0.6
v -0.5 1.2 0.6
v -0.5 2 0.6
v 0.5 1.2 0.6
v 0.5 2 0.6
v 0.7 1 0.6
v 0.7 2.2 0.6
v -0.5 0.2 0.4
v -0.5 1 0.4
v -0.5 1.2 0.4
v -0.5 1.4 0.4
v -0.5 1.6 0.4
v -0.5 1.8 0.4
v -0.5 2 0.4
v -0.3 0.2 0.4
v -0.3 0.8 0.4
v -0.3 1.6 0.4
v -0.3 1.8 0.4
v -0.1 1.4 0.4
v -0.1 1.8 0.4
v -0.1 2 0.4
v 0.1 1.4 0.4
v 0.1 1.6 0.4
v 0.1 1.8 0.4
v 0.1 2 0.4
v 0.3 0.2 0.4
v 0.3 0.8 0.4
v 0.3 1.6 0.4
v 0.3 1.8 0.4
v 0.5 0.2 0.4
v 0.5 1 0.4
v 0.5 1.2 0.4
v 0.5 1.4 0.4
v 0.5 1.8 0.4
v 0.5 2 0.4
v -0.7 0.4 0.2
v -0.7 0.6 0.2
v -0.7 1 0.2
v -0.7 2.2 0.2
v -0.7 3 0.2
v -0.5 0.4 0.2
v -0.5 0.6 0.2
v -0.5 1 0.2
v -0.5 2.2 0.2
v -0.5 2.8 0.2
v -0.3 0 0.2
v -0.3 0.2 0.2
v -0.3 2.2 0.2
v -0.3 2.8 0.2
v -0.1 0 0.2
v -0.1 0.2 0.2
v -0.1 2.2 0.2
v -0.1 3 0.2
v 0.1 0 0.2
v 0.1 0.2 0.2
v 0.1 2.2 0.2
v 0.1 3 0.2
v 0.3 0 0.2
v 0.3 0.2 0.2
v 0.3 2.2 0.2
v 0.3 2.8 0.2
v 0.5 0.4 0.2
v 0.5 0.6 0.2
v 0.5 1 0.2
v 0.5 2.2 0.2
v 0.5 2.8 0.2
v 0.7 0.4 0.2
v 0.7 0.6 0.2
v 0.7 1 0.2
v 0.7 2.2 0.2
v 0.7 3 0.2
v -0.7 0.4 5.96046e-008
v -0.7 0.6 5.96046e-008
v -0.7 1 5.96046e-008
v -0.5 0.4 5.96046e-008
v -0.5 0.6 5.96046e-008
v -0.5 1 5.96046e-008
v 0.5 0.4 5.96046e-008
v 0.5 0.6 5.96046e-008
v 0.5 1 5.96046e-008
v 0.7 0.4 5.96046e-008
v 0.7 0.6 5.96046e-008
v 0.7 1 5.96046e-008
v -0.7 2.2 -0.2
v -0.7 3 -0.2
v -0.3 0 -0.2
v -0.3 0.2 -0.2
v -0.1 0 -0.2
v -0.1 0.2 -0.2
v -0.1 2.2 -0.2
v -0.1 3 -0.2
v 0.1 0 -0.2
v 0.1 0.2 -0.2
v 0.1 2.2 -0.2
v 0.1 3 -0.2
v 0.3 0 -0.2
v 0.3 0.2 -0.2
v 0.7 2.2 -0.2
v 0.7 3 -0.2
v -0.5 0.2 -0.4
v -0.5 1 -0.4
v -0.1 0.3 -0.4
v -0.1 0.5 -0.4
v 0.1 0.3 -0.4
v 0.1 0.5 -0.4
v 0.5 0.2 -0.4
v 0.5 1 -0.4
v -0.7 1 -0.6
v -0.7 2.2 -0.6
v -0.1 0.3 -0.6
v -0.1 0.5 -0.6
v 0.1 0.3 -0.6
v 0.1 0.5 -0.6
v 0.7 1 -0.6
v 0.7 2.2 -0.6
v -0.3 0 0.2
v -0.1 0 0.2
v 0.1 0 0.2
v 0.3 0 0.2
v -0.3 0 -0.2
v -0.1 0 -0.2
v 0.1 0 -0.2
v 0.3 0 -0.2
v -0.5 0.2 0.4
v -0.3 0.2 0.4
v 0.3 0.2 0.4
v 0.5 0.2 0.4
v -0.3 0.2 0.2
v -0.1 0.2 0.2
v 0.1 0.2 0.2
v 0.3 0.2 0.2
v -0.3 0.2 -0.2
v -0.1 0.2 -0.2
v 0.1 0.2 -0.2
v 0.3 0.2 -0.2
v -0.5 0.2 -0.4
v 0.5 0.2 -0.4
v -0.1 0.3 -0.4
v 0.1 0.3 -0.4
v -0.1 0.3 -0.6
v 0.1 0.3 -0.6
v -0.7 0.4 0.2
v -0.5 0.4 0.2
v 0.5 0.4 0.2
v 0.7 0.4 0.2
v -0.7 0.4 5.96046e-008
v -0.5 0.4 5.96046e-008
v 0.5 0.4 5.96046e-008
v 0.7 0.4 5.96046e-008
v -0.7 1 0.6
v 0.7 1 0.6
v -0.5 1 0.4
v 0.5 1 0.4
v -0.7 1 0.2
v -0.5 1 0.2
v 0.5 1 0.2
v 0.7 1 0.2
v -0.7 1 5.96046e-008
v -0.5 1 5.96046e-008
v 0.5 1 5.96046e-008
v 0.7 1 5.96046e-008
v -0.5 1 -0.4
v 0.5 1 -0.4
v -0.7 1 -0.6
v 0.7 1 -0.6
v -0.5 2 0.6
v 0.5 2 0.6
v -0.5 2 0.4
v -0.1 2 0.4
v 0.1 2 0.4
v 0.5 2 0.4
v -0.1 0.5 -0.4
v 0.1 0.5 -0.4
v -0.1 0.5 -0.6
v 0.1 0.5 -0.6
v -0.5 1.2 0.6
v 0.5 1.2 0.6
v -0.5 1.2 0.4
v 0.5 1.2 0.4
v -0.7 2.2 0.6
v 0.7 2.2 0.6
v -0.7 2.2 0.2
v -0.5 2.2 0.2
v -0.3 2.2 0.2
v -0.1 2.2 0.2
v 0.1 2.2 0.2
v 0.3 2.2 0.2
v 0.5 2.2 0.2
v 0.7 2.2 0.2
v -0.7 2.2 -0.2
v -0.1 2.2 -0.2
v 0.1 2.2 -0.2
v 0.7 2.2 -0.2
v -0.7 2.2 -0.6
v 0.7 2.2 -0.6
v -0.7 3 0.2
v -0.1 3 0.2
v 0.1 3 0.2
v 0.7 3 0.2
v -0.7 3 -0.2
v -0.1 3 -0.2
v 0.1 3 -0.2
v 0.7 3 -0.2

# faces
f 3/2/1 2/2/1 1/2/1
f 4/2/1 2/2/1 3/2/1
f 6/4/1 4/4/1 3/4/1
f 7/4/1 4/4/1 6/4/1
f 9/4/1 7/4/1 6/4/1
f 9/4/1 8/4/1 7/4/1
f 9/4/1 6/4/1 5/4/1
f 10/4/1 8/4/1 9/4/1
f 11/4/1 8/4/1 10/4/1
f 12/4/1 8/4/1 11/4/1
f 13/4/1 11/4/1 10/4/1
f 14/4/1 11/4/1 13/4/1
f 17/4/1 16/4/1 15/4/1
f 18/4/1 16/4/1 17/4/1
f 19/4/1 17/4/1 15/4/1
f 20/4/1 16/4/1 18/4/1
f 21/4/1 19/4/1 15/4/1
f 22/4/1 19/4/1 21/4/1
f 23/4/1 16/4/1 20/4/1
f 24/4/1 16/4/1 23/4/1
f 27/3/1 26/3/1 25/3/1
f 28/3/1 26/3/1 27/3/1
f 31/6/1 30/6/1 29/6/1
f 32/6/1 30/6/1 31/6/1
f 35/3/1 34/3/1 33/3/1
f 36/3/1 34/3/1 35/3/1
f 39/4/1 38/4/1 37/4/1
f 40/4/1 38/4/1 39/4/1
f 43/4/1 42/4/1 41/4/1
f 44/4/1 43/4/1 41/4/1
f 45/4/1 44/4/1 41/4/1
f 46/4/1 44/4/1 45/4/1
f 47/4/2 48/4/2 49/4/2
f 47/4/2 49/4/2 50/4/2
f 47/4/2 50/4/2 51/4/2
f 47/4/2 51/4/2 52/4/2
f 52/4/2 51/4/2 53/4/2
f 54/3/2 55/3/2 56/3/2
f 56/3/2 55/3/2 57/3/2
f 58/4/2 59/4/2 60/4/2
f 60/4/2 59/4/2 61/4/2
f 62/6/2 63/6/2 64/6/2
f 64/6/2 63/6/2 65/6/2
f 66/3/2 67/3/2 68/3/2
f 68/3/2 67/3/2 69/3/2
f 70/4/2 71/4/2 72/4/2
f 72/4/2 71/4/2 73/4/2
f 70/4/2 72/4/2 74/4/2
f 73/4/2 71/4/2 75/4/2
f 70/4/2 74/4/2 76/4/2
f 76/4/2 74/4/2 77/4/2
f 75/4/2 71/4/2 78/4/2
f 78/4/2 71/4/2 79/4/2
f 80/2/2 81/2/2 82/2/2
f 82/2/2 81/2/2 83/2/2
f 82/4/2 83/4/2 85/4/2
f 85/4/2 83/4/2 86/4/2
f 85/4/2 86/4/2 88/4/2
f 86/4/2 87/4/2 88/4/2
f 84/4/2 85/4/2 88/4/2
f 88/4/2 87/4/2 89/4/2
f 89/4/2 87/4/2 90/4/2
f 90/4/2 87/4/2 91/4/2
f 89/4/2 90/4/2 92/4/2
f 92/4/2 90/4/2 93/4/2
f 96/4/3 95/4/3 94/4/3
f 97/4/3 95/4/3 96/4/3
f 98/4/3 96/4/3 94/4/3
f 99/4/3 95/4/3 97/4/3
f 100/4/3 98/4/3 94/4/3
f 100/4/3 99/4/3 98/4/3
f 101/4/3 95/4/3 99/4/3
f 101/4/3 99/4/3 100/4/3
f 109/4/3 103/4/3 102/4/3
f 110/4/3 103/4/3 109/4/3
f 111/8/3 106/8/3 105/8/3
f 111/7/3 107/7/3 106/7/3
f 112/1/3 108/1/3 107/1/3
f 112/7/3 107/7/3 111/7/3
f 113/8/3 111/8/3 105/8/3
f 113/2/3 105/2/3 104/2/3
f 113/8/3 112/8/3 111/8/3
f 114/1/3 108/1/3 112/1/3
f 114/8/3 112/8/3 113/8/3
f 115/1/3 108/1/3 114/1/3
f 116/2/3 113/2/3 104/2/3
f 116/2/3 114/2/3 113/2/3
f 116/2/3 115/2/3 114/2/3
f 117/2/3 115/2/3 116/2/3
f 118/2/3 115/2/3 117/2/3
f 119/2/3 115/2/3 118/2/3
f 120/6/3 110/6/3 109/6/3
f 121/4/3 103/4/3 110/4/3
f 121/6/3 110/6/3 120/6/3
f 122/8/3 117/8/3 116/8/3
f 122/7/3 118/7/3 117/7/3
f 123/1/3 119/1/3 118/1/3
f 123/7/3 118/7/3 122/7/3
f 124/4/3 121/4/3 120/4/3
f 125/4/3 103/4/3 121/4/3
f 125/4/3 121/4/3 124/4/3
f 126/2/3 116/2/3 104/2/3
f 127/8/3 122/8/3 116/8/3
f 127/2/3 116/2/3 126/2/3
f 127/8/3 123/8/3 122/8/3
f 128/1/3 119/1/3 123/1/3
f 128/8/3 123/8/3 127/8/3
f 129/1/3 119/1/3 128/1/3
f 135/2/3 131/2/3 130/2/3
f 136/4/3 132/4/3 131/4/3
f 136/2/3 131/2/3 135/2/3
f 137/4/3 132/4/3 136/4/3
f 138/4/3 134/4/3 133/4/3
f 139/4/3 134/4/3 138/4/3
f 142/5/3 139/5/3 138/5/3
f 143/4/3 134/4/3 139/4/3
f 143/5/3 139/5/3 142/5/3
f 144/3/3 141/3/3 140/3/3
f 145/3/3 141/3/3 144/3/3
f 146/4/3 143/4/3 142/4/3
f 147/4/3 134/4/3 143/4/3
f 147/4/3 143/4/3 146/4/3
f 152/3/3 149/3/3 148/3/3
f 153/3/3 149/3/3 152/3/3
f 154/4/3 151/4/3 150/4/3
f 155/4/3 151/4/3 154/4/3
f 159/5/3 155/5/3 154/5/3
f 160/4/3 151/4/3 155/4/3
f 160/5/3 155/5/3 159/5/3
f 161/2/3 157/2/3 156/2/3
f 162/4/3 158/4/3 157/4/3
f 162/2/3 157/2/3 161/2/3
f 163/4/3 158/4/3 162/4/3
f 164/4/3 160/4/3 159/4/3
f 165/4/3 151/4/3 160/4/3
f 165/4/3 160/4/3 164/4/3
f 166/2/4 167/2/4 169/2/4
f 167/4/4 168/4/4 170/4/4
f 169/2/4 167/2/4 170/2/4
f 170/4/4 168/4/4 171/4/4
f 172/2/4 173/2/4 175/2/4
f 173/4/4 174/4/4 176/4/4
f 175/2/4 173/2/4 176/2/4
f 176/4/4 174/4/4 177/4/4
f 180/3/4 181/3/4 182/3/4
f 182/3/4 181/3/4 183/3/4
f 178/4/4 179/4/4 184/4/4
f 184/4/4 179/4/4 185/4/4
f 186/3/4 187/3/4 190/3/4
f 190/3/4 187/3/4 191/3/4
f 188/4/4 189/4/4 192/4/4
f 192/4/4 189/4/4 193/4/4
f 194/4/4 195/4/4 196/4/4
f 196/4/4 195/4/4 197/4/4
f 194/4/4 196/4/4 198/4/4
f 197/4/4 195/4/4 199/4/4
f 194/4/4 198/4/4 200/4/4
f 198/4/4 199/4/4 200/4/4
f 199/4/4 195/4/4 201/4/4
f 200/4/4 199/4/4 201/4/4
f 204/6/4 205/6/4 206/6/4
f 206/6/4 205/6/4 207/6/4
f 202/4/4 203/4/4 208/4/4
f 208/4/4 203/4/4 209/4/4
f 214/3/5 211/3/5 210/3/5
f 215/3/5 211/3/5 214/3/5
f 216/3/5 213/3/5 212/3/5
f 217/3/5 213/3/5 216/3/5
f 222/4/5 219/4/5 218/4/5
f 222/6/5 220/6/5 219/6/5
f 223/6/5 220/6/5 222/6/5
f 224/6/5 220/6/5 223/6/5
f 225/4/5 221/4/5 220/4/5
f 225/6/5 220/6/5 224/6/5
f 226/4/5 222/4/5 218/4/5
f 227/4/5 224/4/5 223/4/5
f 228/4/5 224/4/5 227/4/5
f 229/4/5 221/4/5 225/4/5
f 230/4/5 226/4/5 218/4/5
f 230/4/5 229/4/5 228/4/5
f 230/4/5 228/4/5 227/4/5
f 230/4/5 227/4/5 226/4/5
f 231/4/5 221/4/5 229/4/5
f 231/4/5 229/4/5 230/4/5
f 234/6/5 233/6/5 232/6/5
f 235/6/5 233/6/5 234/6/5
f 240/2/5 237/2/5 236/2/5
f 241/2/5 237/2/5 240/2/5
f 242/2/5 239/2/5 238/2/5
f 243/2/5 239/2/5 242/2/5
f 246/4/5 245/4/5 244/4/5
f 247/4/5 245/4/5 246/4/5
f 248/4/5 246/4/5 244/4/5
f 249/4/5 246/4/5 248/4/5
f 250/4/5 245/4/5 247/4/5
f 251/4/5 245/4/5 250/4/5
f 256/4/5 253/4/5 252/4/5
f 257/4/5 255/4/5 254/4/5
f 258/4/5 256/4/5 252/4/5
f 258/4/5 257/4/5 256/4/5
f 259/4/5 255/4/5 257/4/5
f 259/4/5 257/4/5 258/4/5
f 262/4/5 261/4/5 260/4/5
f 263/4/5 261/4/5 262/4/5
f 264/4/5 261/4/5 263/4/5
f 265/4/5 261/4/5 264/4/5
f 266/6/6 267/6/6 268/6/6
f 268/6/6 267/6/6 269/6/6
f 270/4/6 271/4/6 272/4/6
f 272/4/6 271/4/6 273/4/6
f 274/4/6 275/4/6 276/4/6
f 276/4/6 275/4/6 277/4/6
f 277/4/6 275/4/6 278/4/6
f 278/4/6 275/4/6 279/4/6
f 279/4/6 275/4/6 280/4/6
f 280/4/6 275/4/6 281/4/6
f 281/4/6 275/4/6 282/4/6
f 282/4/6 275/4/6 283/4/6
f 279/4/6 280/4/6 285/4/6
f 285/4/6 280/4/6 286/4/6
f 284/4/6 285/4/6 288/4/6
f 286/4/6 287/4/6 288/4/6
f 285/4/6 286/4/6 288/4/6
f 288/4/6 287/4/6 289/4/6
f 290/4/6 291/4/6 294/4/6
f 294/4/6 291/4/6 295/4/6
f 292/4/6 293/4/6 296/4/6
f 296/4/6 293/4/6 297/4/6
