# MagicaVoxel @ Ephtracy

# group
o 

# material
mtllib yellowbear.mtl
usemtl palette

# normals
vn -1 0 0
vn 1 0 0
vn 0 0 1
vn 0 0 -1
vn 0 -1 0
vn 0 1 0

# texcoords
vt 0.314453 0.5
vt 0.369141 0.5
vt 0.373047 0.5
vt 0.404297 0.5
vt 0.904297 0.5
vt 0.916016 0.5
vt 0.990234 0.5

# verts
v -0.9 2.2 -0.1
v -0.9 2.2 -0.3
v -0.9 3 -0.1
v -0.9 3 -0.3
v -0.7 0.8 -0.1
v -0.7 0.8 -0.5
v -0.7 0.8 -0.7
v -0.7 1 -0.3
v -0.7 1 -0.5
v -0.7 1 -0.7
v -0.7 1.2 0.7
v -0.7 1.2 -0.1
v -0.7 1.2 -0.3
v -0.7 1.2 -0.7
v -0.7 2.2 -0.1
v -0.7 2.2 -0.3
v -0.7 2.6 0.7
v -0.7 2.6 0.1
v -0.7 2.6 -0.3
v -0.7 2.6 -0.7
v -0.7 2.8 0.1
v -0.7 2.8 -0.1
v -0.5 0.2 0.5
v -0.5 0.2 -0.5
v -0.5 0.8 -0.1
v -0.5 0.8 -0.5
v -0.5 1 -0.3
v -0.5 1 -0.5
v -0.5 1.2 0.5
v -0.5 1.2 -0.1
v -0.5 1.2 -0.3
v -0.5 1.2 -0.5
v -0.3 0 0.3
v -0.3 0 -0.3
v -0.3 0.2 0.3
v -0.3 0.2 -0.3
v -0.3 1.4 -0.7
v -0.3 1.4 -0.9
v -0.3 1.6 -0.5
v -0.3 1.6 -0.7
v -0.3 1.6 -0.9
v -0.3 1.8 -0.5
v -0.3 1.8 -0.9
v 0.1 0 0.3
v 0.1 0 -0.3
v 0.1 0.2 0.3
v 0.1 0.2 -0.3
v 0.3 2.6 0.1
v 0.3 2.6 -0.3
v 0.3 2.8 0.1
v 0.3 2.8 -0.1
v 0.3 3 -0.1
v 0.3 3 -0.3
v 0.5 1.6 -0.5
v 0.5 1.6 -0.7
v 0.5 1.8 -0.5
v 0.5 2.2 -0.5
v 0.5 2.2 -0.7
v -0.5 0.8 -0.5
v -0.5 0.8 -0.7
v -0.5 1 -0.5
v -0.5 1 -0.7
v -0.5 1.6 -0.5
v -0.5 1.6 -0.7
v -0.5 1.8 -0.5
v -0.5 2 -0.5
v -0.5 2.2 -0.5
v -0.5 2.2 -0.7
v -0.3 2.6 0.1
v -0.3 2.6 -0.3
v -0.3 2.8 0.1
v -0.3 2.8 -0.1
v -0.3 3 -0.1
v -0.3 3 -0.3
v -0.1 0 0.3
v -0.1 0 -0.3
v -0.1 0.2 0.3
v -0.1 0.2 -0.3
v 0.3 0 0.3
v 0.3 0 -0.3
v 0.3 0.2 0.3
v 0.3 0.2 -0.3
v 0.3 1.4 -0.7
v 0.3 1.4 -0.9
v 0.3 1.6 -0.5
v 0.3 1.6 -0.7
v 0.3 1.6 -0.9
v 0.3 1.8 -0.5
v 0.3 1.8 -0.9
v 0.5 0.2 0.5
v 0.5 0.2 -0.5
v 0.5 0.4 -0.1
v 0.5 0.4 -0.3
v 0.5 0.6 -0.1
v 0.5 0.6 -0.3
v 0.5 1.2 0.5
v 0.5 1.2 -0.1
v 0.5 1.2 -0.3
v 0.5 1.2 -0.5
v 0.7 0.4 -0.1
v 0.7 0.4 -0.3
v 0.7 0.6 -0.1
v 0.7 0.6 -0.3
v 0.7 1.2 0.7
v 0.7 1.2 -0.1
v 0.7 1.2 -0.3
v 0.7 1.2 -0.7
v 0.7 2.2 -0.1
v 0.7 2.2 -0.3
v 0.7 2.6 0.7
v 0.7 2.6 0.1
v 0.7 2.6 -0.3
v 0.7 2.6 -0.7
v 0.7 2.8 0.1
v 0.7 2.8 -0.1
v 0.9 2.2 -0.1
v 0.9 2.2 -0.3
v 0.9 3 -0.1
v 0.9 3 -0.3
v -0.7 1.2 0.7
v -0.7 2.6 0.7
v 0.7 1.2 0.7
v 0.7 2.6 0.7
v -0.5 0.2 0.5
v -0.5 1.2 0.5
v 0.5 0.2 0.5
v 0.5 1.2 0.5
v -0.3 0 0.3
v -0.3 0.2 0.3
v -0.1 0 0.3
v -0.1 0.2 0.3
v 0.1 0 0.3
v 0.1 0.2 0.3
v 0.3 0 0.3
v 0.3 0.2 0.3
v -0.7 2.6 0.1
v -0.7 2.8 0.1
v -0.3 2.6 0.1
v -0.3 2.8 0.1
v 0.3 2.6 0.1
v 0.3 2.8 0.1
v 0.7 2.6 0.1
v 0.7 2.8 0.1
v -0.9 2.2 -0.1
v -0.9 3 -0.1
v -0.7 0.8 -0.1
v -0.7 1.2 -0.1
v -0.7 2.2 -0.1
v -0.7 2.8 -0.1
v -0.5 0.8 -0.1
v -0.5 1.2 -0.1
v -0.3 2.8 -0.1
v -0.3 3 -0.1
v 0.3 2.8 -0.1
v 0.3 3 -0.1
v 0.5 0.4 -0.1
v 0.5 0.6 -0.1
v 0.5 1.2 -0.1
v 0.7 0.4 -0.1
v 0.7 0.6 -0.1
v 0.7 1.2 -0.1
v 0.7 2.2 -0.1
v 0.7 2.8 -0.1
v 0.9 2.2 -0.1
v 0.9 3 -0.1
v -0.9 2.2 -0.3
v -0.9 3 -0.3
v -0.7 1 -0.3
v -0.7 1.2 -0.3
v -0.7 2.2 -0.3
v -0.7 2.6 -0.3
v -0.7 2.8 -0.3
v -0.5 1 -0.3
v -0.5 1.2 -0.3
v -0.5 2.6 -0.3
v -0.5 2.8 -0.3
v -0.3 0 -0.3
v -0.3 0.2 -0.3
v -0.3 2.6 -0.3
v -0.3 3 -0.3
v -0.1 0 -0.3
v -0.1 0.2 -0.3
v 0.1 0 -0.3
v 0.1 0.2 -0.3
v 0.3 0 -0.3
v 0.3 0.2 -0.3
v 0.3 2.6 -0.3
v 0.3 3 -0.3
v 0.5 0.4 -0.3
v 0.5 0.6 -0.3
v 0.5 1.2 -0.3
v 0.5 2.6 -0.3
v 0.5 2.8 -0.3
v 0.7 0.4 -0.3
v 0.7 0.6 -0.3
v 0.7 1.2 -0.3
v 0.7 2.2 -0.3
v 0.7 2.6 -0.3
v 0.7 2.8 -0.3
v 0.9 2.2 -0.3
v 0.9 3 -0.3
v -0.5 0.2 -0.5
v -0.5 0.8 -0.5
v -0.5 1 -0.5
v -0.5 1.2 -0.5
v -0.5 1.6 -0.5
v -0.5 1.8 -0.5
v -0.5 2 -0.5
v -0.5 2.2 -0.5
v -0.3 1.6 -0.5
v -0.3 1.8 -0.5
v -0.3 2 -0.5
v -0.3 2.2 -0.5
v -0.1 1.8 -0.5
v -0.1 2.2 -0.5
v 0.1 1.8 -0.5
v 0.1 2 -0.5
v 0.1 2.2 -0.5
v 0.3 1.6 -0.5
v 0.3 1.8 -0.5
v 0.3 2 -0.5
v 0.3 2.2 -0.5
v 0.5 0.2 -0.5
v 0.5 1.2 -0.5
v 0.5 1.6 -0.5
v 0.5 1.8 -0.5
v 0.5 2.2 -0.5
v -0.7 0.8 -0.7
v -0.7 1 -0.7
v -0.7 1.2 -0.7
v -0.7 2.6 -0.7
v -0.5 0.8 -0.7
v -0.5 1 -0.7
v -0.5 1.6 -0.7
v -0.5 2.2 -0.7
v -0.3 1.4 -0.7
v -0.3 1.6 -0.7
v -0.1 1.4 -0.7
v 0.1 1.4 -0.7
v 0.3 1.4 -0.7
v 0.3 1.6 -0.7
v 0.5 1.6 -0.7
v 0.5 2.2 -0.7
v 0.7 1.2 -0.7
v 0.7 2.6 -0.7
v -0.3 1.4 -0.9
v -0.3 1.6 -0.9
v -0.3 1.8 -0.9
v -0.1 1.4 -0.9
v -0.1 1.6 -0.9
v 0.1 1.4 -0.9
v 0.1 1.6 -0.9
v 0.3 1.4 -0.9
v 0.3 1.6 -0.9
v 0.3 1.8 -0.9
v -0.3 0 0.3
v -0.1 0 0.3
v 0.1 0 0.3
v 0.3 0 0.3
v -0.3 0 -0.3
v -0.1 0 -0.3
v 0.1 0 -0.3
v 0.3 0 -0.3
v -0.5 0.2 0.5
v 0.5 0.2 0.5
v -0.3 0.2 0.3
v -0.1 0.2 0.3
v 0.1 0.2 0.3
v 0.3 0.2 0.3
v -0.3 0.2 -0.3
v -0.1 0.2 -0.3
v 0.1 0.2 -0.3
v 0.3 0.2 -0.3
v -0.5 0.2 -0.5
v 0.5 0.2 -0.5
v 0.5 0.4 -0.1
v 0.7 0.4 -0.1
v 0.5 0.4 -0.3
v 0.7 0.4 -0.3
v -0.7 0.8 -0.1
v -0.5 0.8 -0.1
v -0.7 0.8 -0.5
v -0.5 0.8 -0.5
v -0.7 0.8 -0.7
v -0.5 0.8 -0.7
v -0.7 1.2 0.7
v 0.7 1.2 0.7
v -0.5 1.2 0.5
v 0.5 1.2 0.5
v -0.7 1.2 -0.1
v -0.5 1.2 -0.1
v 0.5 1.2 -0.1
v 0.7 1.2 -0.1
v -0.7 1.2 -0.3
v -0.5 1.2 -0.3
v 0.5 1.2 -0.3
v 0.7 1.2 -0.3
v -0.5 1.2 -0.5
v 0.5 1.2 -0.5
v -0.7 1.2 -0.7
v 0.7 1.2 -0.7
v -0.3 1.4 -0.7
v -0.1 1.4 -0.7
v 0.1 1.4 -0.7
v 0.3 1.4 -0.7
v -0.3 1.4 -0.9
v -0.1 1.4 -0.9
v 0.1 1.4 -0.9
v 0.3 1.4 -0.9
v -0.9 2.2 -0.1
v -0.7 2.2 -0.1
v 0.7 2.2 -0.1
v 0.9 2.2 -0.1
v -0.9 2.2 -0.3
v -0.7 2.2 -0.3
v 0.7 2.2 -0.3
v 0.9 2.2 -0.3
v -0.5 2.2 -0.5
v -0.3 2.2 -0.5
v -0.1 2.2 -0.5
v 0.1 2.2 -0.5
v 0.3 2.2 -0.5
v 0.5 2.2 -0.5
v -0.5 2.2 -0.7
v 0.5 2.2 -0.7
v -0.7 1 -0.3
v -0.5 1 -0.3
v -0.7 1 -0.5
v -0.5 1 -0.5
v -0.7 1 -0.7
v -0.5 1 -0.7
v -0.5 1.6 -0.5
v -0.3 1.6 -0.5
v 0.3 1.6 -0.5
v 0.5 1.6 -0.5
v -0.5 1.6 -0.7
v -0.3 1.6 -0.7
v 0.3 1.6 -0.7
v 0.5 1.6 -0.7
v -0.3 1.8 -0.5
v -0.1 1.8 -0.5
v 0.1 1.8 -0.5
v 0.3 1.8 -0.5
v -0.3 1.8 -0.9
v 0.3 1.8 -0.9
v -0.7 2.6 0.7
v 0.7 2.6 0.7
v -0.7 2.6 0.1
v -0.3 2.6 0.1
v 0.3 2.6 0.1
v 0.7 2.6 0.1
v -0.7 2.6 -0.3
v -0.5 2.6 -0.3
v -0.3 2.6 -0.3
v 0.3 2.6 -0.3
v 0.5 2.6 -0.3
v 0.7 2.6 -0.3
v -0.7 2.6 -0.7
v 0.7 2.6 -0.7
v -0.7 2.8 0.1
v -0.3 2.8 0.1
v 0.3 2.8 0.1
v 0.7 2.8 0.1
v -0.7 2.8 -0.1
v -0.3 2.8 -0.1
v 0.3 2.8 -0.1
v 0.7 2.8 -0.1
v -0.9 3 -0.1
v -0.3 3 -0.1
v 0.3 3 -0.1
v 0.9 3 -0.1
v -0.9 3 -0.3
v -0.3 3 -0.3
v 0.3 3 -0.3
v 0.9 3 -0.3

# faces
f 3/3/1 2/3/1 1/3/1
f 4/3/1 2/3/1 3/3/1
f 8/3/1 6/3/1 5/3/1
f 9/1/1 7/1/1 6/1/1
f 9/3/1 6/3/1 8/3/1
f 10/1/1 7/1/1 9/1/1
f 12/3/1 8/3/1 5/3/1
f 13/3/1 8/3/1 12/3/1
f 15/3/1 12/3/1 11/3/1
f 15/3/1 14/3/1 13/3/1
f 15/3/1 13/3/1 12/3/1
f 16/3/1 14/3/1 15/3/1
f 17/3/1 15/3/1 11/3/1
f 18/3/1 15/3/1 17/3/1
f 19/3/1 14/3/1 16/3/1
f 20/3/1 14/3/1 19/3/1
f 21/3/1 15/3/1 18/3/1
f 22/3/1 15/3/1 21/3/1
f 25/3/1 24/3/1 23/3/1
f 26/3/1 24/3/1 25/3/1
f 29/3/1 25/3/1 23/3/1
f 30/3/1 25/3/1 29/3/1
f 31/3/1 28/3/1 27/3/1
f 32/3/1 28/3/1 31/3/1
f 35/2/1 34/2/1 33/2/1
f 36/2/1 34/2/1 35/2/1
f 40/2/1 38/2/1 37/2/1
f 41/2/1 38/2/1 40/2/1
f 42/4/1 40/4/1 39/4/1
f 42/4/1 41/4/1 40/4/1
f 43/4/1 41/4/1 42/4/1
f 46/2/1 45/2/1 44/2/1
f 47/2/1 45/2/1 46/2/1
f 50/3/1 49/3/1 48/3/1
f 51/3/1 49/3/1 50/3/1
f 52/3/1 49/3/1 51/3/1
f 53/3/1 49/3/1 52/3/1
f 56/3/1 55/3/1 54/3/1
f 57/3/1 55/3/1 56/3/1
f 58/3/1 55/3/1 57/3/1
f 59/1/2 60/1/2 61/1/2
f 61/1/2 60/1/2 62/1/2
f 63/3/2 64/3/2 65/3/2
f 65/3/2 64/3/2 66/3/2
f 66/3/2 64/3/2 67/3/2
f 67/3/2 64/3/2 68/3/2
f 69/3/2 70/3/2 71/3/2
f 71/3/2 70/3/2 72/3/2
f 72/3/2 70/3/2 73/3/2
f 73/3/2 70/3/2 74/3/2
f 75/2/2 76/2/2 77/2/2
f 77/2/2 76/2/2 78/2/2
f 79/2/2 80/2/2 81/2/2
f 81/2/2 80/2/2 82/2/2
f 83/2/2 84/2/2 86/2/2
f 86/2/2 84/2/2 87/2/2
f 85/4/2 86/4/2 88/4/2
f 86/4/2 87/4/2 88/4/2
f 88/4/2 87/4/2 89/4/2
f 90/3/2 91/3/2 92/3/2
f 92/3/2 91/3/2 93/3/2
f 90/3/2 92/3/2 94/3/2
f 93/3/2 91/3/2 95/3/2
f 90/3/2 94/3/2 96/3/2
f 96/3/2 94/3/2 97/3/2
f 95/3/2 91/3/2 98/3/2
f 98/3/2 91/3/2 99/3/2
f 100/1/2 101/1/2 102/1/2
f 102/1/2 101/1/2 103/1/2
f 102/3/2 103/3/2 105/3/2
f 105/3/2 103/3/2 106/3/2
f 105/3/2 106/3/2 108/3/2
f 106/3/2 107/3/2 108/3/2
f 104/3/2 105/3/2 108/3/2
f 108/3/2 107/3/2 109/3/2
f 104/3/2 108/3/2 110/3/2
f 110/3/2 108/3/2 111/3/2
f 109/3/2 107/3/2 112/3/2
f 112/3/2 107/3/2 113/3/2
f 111/3/2 108/3/2 114/3/2
f 114/3/2 108/3/2 115/3/2
f 116/3/2 117/3/2 118/3/2
f 118/3/2 117/3/2 119/3/2
f 122/3/3 121/3/3 120/3/3
f 123/3/3 121/3/3 122/3/3
f 126/3/3 125/3/3 124/3/3
f 127/3/3 125/3/3 126/3/3
f 130/2/3 129/2/3 128/2/3
f 131/2/3 129/2/3 130/2/3
f 134/2/3 133/2/3 132/2/3
f 135/2/3 133/2/3 134/2/3
f 138/3/3 137/3/3 136/3/3
f 139/3/3 137/3/3 138/3/3
f 142/3/3 141/3/3 140/3/3
f 143/3/3 141/3/3 142/3/3
f 148/3/3 145/3/3 144/3/3
f 149/3/3 145/3/3 148/3/3
f 150/3/3 147/3/3 146/3/3
f 151/3/3 147/3/3 150/3/3
f 152/3/3 145/3/3 149/3/3
f 153/3/3 145/3/3 152/3/3
f 159/1/3 157/1/3 156/1/3
f 160/3/3 158/3/3 157/3/3
f 160/1/3 157/1/3 159/1/3
f 161/3/3 158/3/3 160/3/3
f 163/3/3 155/3/3 154/3/3
f 164/3/3 163/3/3 162/3/3
f 165/3/3 155/3/3 163/3/3
f 165/3/3 163/3/3 164/3/3
f 166/3/4 167/3/4 170/3/4
f 170/3/4 167/3/4 171/3/4
f 171/3/4 167/3/4 172/3/4
f 168/3/4 169/3/4 173/3/4
f 173/3/4 169/3/4 174/3/4
f 171/5/4 172/5/4 175/5/4
f 172/3/4 167/3/4 176/3/4
f 175/5/4 172/5/4 176/5/4
f 175/3/4 176/3/4 179/3/4
f 176/3/4 167/3/4 180/3/4
f 179/3/4 176/3/4 180/3/4
f 177/2/4 178/2/4 181/2/4
f 181/2/4 178/2/4 182/2/4
f 183/2/4 184/2/4 185/2/4
f 185/2/4 184/2/4 186/2/4
f 187/3/4 188/3/4 192/3/4
f 192/3/4 188/3/4 193/3/4
f 189/1/4 190/1/4 194/1/4
f 190/3/4 191/3/4 195/3/4
f 194/1/4 190/1/4 195/1/4
f 195/3/4 191/3/4 196/3/4
f 192/5/4 193/5/4 198/5/4
f 193/3/4 188/3/4 199/3/4
f 198/5/4 193/5/4 199/5/4
f 197/3/4 198/3/4 200/3/4
f 198/3/4 199/3/4 200/3/4
f 199/3/4 188/3/4 201/3/4
f 200/3/4 199/3/4 201/3/4
f 206/1/4 207/1/4 210/1/4
f 207/7/4 208/7/4 211/7/4
f 210/1/4 207/1/4 211/1/4
f 208/6/4 209/6/4 212/6/4
f 211/7/4 208/7/4 212/7/4
f 212/6/4 209/6/4 213/6/4
f 211/7/4 212/7/4 214/7/4
f 212/7/4 213/7/4 214/7/4
f 214/7/4 213/7/4 215/7/4
f 214/1/4 215/1/4 216/1/4
f 216/1/4 215/1/4 217/1/4
f 217/1/4 215/1/4 218/1/4
f 216/7/4 217/7/4 220/7/4
f 217/6/4 218/6/4 221/6/4
f 220/7/4 217/7/4 221/7/4
f 221/6/4 218/6/4 222/6/4
f 202/3/4 203/3/4 223/3/4
f 203/3/4 204/3/4 223/3/4
f 204/3/4 205/3/4 223/3/4
f 223/3/4 205/3/4 224/3/4
f 219/1/4 220/1/4 225/1/4
f 221/7/4 222/7/4 226/7/4
f 225/1/4 220/1/4 226/1/4
f 220/7/4 221/7/4 226/7/4
f 226/7/4 222/7/4 227/7/4
f 228/1/4 229/1/4 232/1/4
f 232/1/4 229/1/4 233/1/4
f 230/3/4 231/3/4 234/3/4
f 234/3/4 231/3/4 235/3/4
f 230/3/4 234/3/4 236/3/4
f 236/3/4 234/3/4 237/3/4
f 230/3/4 236/3/4 238/3/4
f 230/3/4 238/3/4 239/3/4
f 230/3/4 239/3/4 240/3/4
f 240/3/4 241/3/4 242/3/4
f 235/3/4 231/3/4 243/3/4
f 240/3/4 242/3/4 244/3/4
f 242/3/4 243/3/4 244/3/4
f 230/3/4 240/3/4 244/3/4
f 243/3/4 231/3/4 245/3/4
f 244/3/4 243/3/4 245/3/4
f 246/2/4 247/2/4 249/2/4
f 247/4/4 248/4/4 250/4/4
f 249/2/4 247/2/4 250/2/4
f 249/4/4 250/4/4 251/4/4
f 250/4/4 248/4/4 252/4/4
f 251/4/4 250/4/4 252/4/4
f 251/2/4 252/2/4 253/2/4
f 252/4/4 248/4/4 254/4/4
f 253/2/4 252/2/4 254/2/4
f 254/4/4 248/4/4 255/4/4
f 260/2/5 257/2/5 256/2/5
f 261/2/5 257/2/5 260/2/5
f 262/2/5 259/2/5 258/2/5
f 263/2/5 259/2/5 262/2/5
f 266/3/5 265/3/5 264/3/5
f 267/3/5 265/3/5 266/3/5
f 268/3/5 265/3/5 267/3/5
f 269/3/5 265/3/5 268/3/5
f 270/3/5 266/3/5 264/3/5
f 271/3/5 268/3/5 267/3/5
f 272/3/5 268/3/5 271/3/5
f 273/3/5 265/3/5 269/3/5
f 274/3/5 272/3/5 271/3/5
f 274/3/5 273/3/5 272/3/5
f 274/3/5 270/3/5 264/3/5
f 274/3/5 271/3/5 270/3/5
f 275/3/5 265/3/5 273/3/5
f 275/3/5 273/3/5 274/3/5
f 278/1/5 277/1/5 276/1/5
f 279/1/5 277/1/5 278/1/5
f 282/3/5 281/3/5 280/3/5
f 283/3/5 281/3/5 282/3/5
f 284/1/5 283/1/5 282/1/5
f 285/1/5 283/1/5 284/1/5
f 288/3/5 287/3/5 286/3/5
f 289/3/5 287/3/5 288/3/5
f 290/3/5 288/3/5 286/3/5
f 291/3/5 288/3/5 290/3/5
f 292/3/5 287/3/5 289/3/5
f 293/3/5 287/3/5 292/3/5
f 298/3/5 295/3/5 294/3/5
f 299/3/5 297/3/5 296/3/5
f 300/3/5 298/3/5 294/3/5
f 300/3/5 299/3/5 298/3/5
f 301/3/5 297/3/5 299/3/5
f 301/3/5 299/3/5 300/3/5
f 306/2/5 303/2/5 302/2/5
f 307/4/5 304/4/5 303/4/5
f 307/2/5 303/2/5 306/2/5
f 308/2/5 305/2/5 304/2/5
f 308/4/5 304/4/5 307/4/5
f 309/2/5 305/2/5 308/2/5
f 314/3/5 311/3/5 310/3/5
f 315/3/5 311/3/5 314/3/5
f 316/3/5 313/3/5 312/3/5
f 317/3/5 313/3/5 316/3/5
f 324/3/5 319/3/5 318/3/5
f 324/3/5 323/3/5 322/3/5
f 324/3/5 322/3/5 321/3/5
f 324/3/5 321/3/5 320/3/5
f 324/3/5 320/3/5 319/3/5
f 325/3/5 323/3/5 324/3/5
f 326/3/6 327/3/6 328/3/6
f 328/3/6 327/3/6 329/3/6
f 328/1/6 329/1/6 330/1/6
f 330/1/6 329/1/6 331/1/6
f 332/3/6 333/3/6 336/3/6
f 336/3/6 333/3/6 337/3/6
f 334/3/6 335/3/6 338/3/6
f 338/3/6 335/3/6 339/3/6
f 340/4/6 341/4/6 344/4/6
f 342/4/6 343/4/6 344/4/6
f 341/4/6 342/4/6 344/4/6
f 344/4/6 343/4/6 345/4/6
f 346/3/6 347/3/6 348/3/6
f 348/3/6 347/3/6 349/3/6
f 349/3/6 347/3/6 350/3/6
f 350/3/6 347/3/6 351/3/6
f 349/3/6 350/3/6 354/3/6
f 354/3/6 350/3/6 355/3/6
f 352/3/6 353/3/6 358/3/6
f 356/3/6 357/3/6 358/3/6
f 355/3/6 356/3/6 358/3/6
f 354/3/6 355/3/6 358/3/6
f 353/3/6 354/3/6 358/3/6
f 358/3/6 357/3/6 359/3/6
f 360/3/6 361/3/6 364/3/6
f 364/3/6 361/3/6 365/3/6
f 362/3/6 363/3/6 366/3/6
f 366/3/6 363/3/6 367/3/6
f 368/3/6 369/3/6 372/3/6
f 372/3/6 369/3/6 373/3/6
f 370/3/6 371/3/6 374/3/6
f 374/3/6 371/3/6 375/3/6
